/* XPM */
static char * info_xpm[] = {
"20 19 6 1",
" 	c None",
".	c #000000",
"+	c #FFFFFF",
"@	c #B4B4B4",
"#	c #2A2A2A",
"$	c #0C0C0C",
"                    ",
"    ............    ",
"    .++++++++++.    ",
"    .+@@@@@@@@+.    ",
"    .++++++++++.    ",
"    .+@@@@@@@@+.    ",
" ....++++++++++.... ",
" .##.+@@@@@@@@+.##. ",
" .##............##. ",
" .#$############$#. ",
" .#$##$$$$$$$$##$#. ",
" .#$############$#. ",
" .################. ",
" .##............##. ",
" ....          .... ",
"                    ",
"                    ",
"                    ",
"                    "};
